<svg xmlns="http://www.w3.org/2000/svg" viewBox="0 0 900 675" role="img" aria-label="Sřndre Haugen gĺrd">
  <defs>
    <linearGradient id="cf-bg" x1="0" y1="0" x2="1" y2="1">
      <stop offset="0%" stop-color="#2d5a4f"/>
      <stop offset="60%" stop-color="#1a3c34"/>
      <stop offset="100%" stop-color="#2c2419"/>
    </linearGradient>
  </defs>
  <rect width="900" height="675" fill="url(#cf-bg)"/>
  <path d="M450 120 L580 200 L580 340 L450 420 L320 340 L320 200 Z" fill="#f6efe4" fill-opacity="0.12" stroke="#c17f59" stroke-width="1.5"/>
  <g transform="translate(450 280)">
    <path d="M0 -42 C-28 -42 -44 -22 -44 2 C-44 18 -32 30 -16 34 C-44 40 -56 58 -56 82 C-56 108 -32 128 0 128 C32 128 56 108 56 82 C56 58 44 40 16 34 C32 30 44 18 44 2 C44 -22 28 -42 0 -42 Z" fill="none" stroke="#f6efe4" stroke-width="4" stroke-linecap="round"/>
    <path d="M0 -22 L0 108" stroke="#d4a07a" stroke-width="3" stroke-linecap="round"/>
    <circle cx="0" cy="-58" r="5" fill="#c17f59"/>
  </g>
  <text x="450" y="500" text-anchor="middle" font-family="Georgia, serif" font-size="26" font-weight="600" fill="#f6efe4">S&#248;ndre Haugen g&#229;rd</text>
  <text x="450" y="538" text-anchor="middle" font-family="system-ui, sans-serif" font-size="14" fill="#d4a07a" letter-spacing="0.12em">V&#229;ler &#183; &#216;stfold</text>
</svg>
