<svg xmlns="http://www.w3.org/2000/svg" viewBox="0 0 900 675" role="img" aria-label="Sřndre Haugen gĺrd  bilde kommer">
  <defs>
    <linearGradient id="cf-bg" x1="0" y1="0" x2="1" y2="1">
      <stop offset="0%" stop-color="#f7f3eb"/>
      <stop offset="100%" stop-color="#e8e0d0"/>
    </linearGradient>
  </defs>
  <rect width="900" height="675" fill="url(#cf-bg)"/>
  <rect x="40" y="40" width="820" height="595" fill="none" stroke="#b8956a" stroke-width="1.5" opacity="0.5" rx="4"/>
  <g transform="translate(450 300)">
    <circle r="72" fill="#f7f3eb" stroke="#2a4538" stroke-width="1.5"/>
    <path d="M-28 -8 L-14 -22 L0 -8 L0 18 L-28 18 Z" fill="#8b3a3a"/>
    <path d="M0 -12 L14 -22 L28 -8 L28 18 L0 18 Z" fill="#b8956a"/>
    <path d="M-4 2 C-8 -4 -14 -2 -7 4 C0 10 0 10 0 10 C0 10 0 10 7 4 C14 -2 8 -4 4 2 Z" fill="#8b3a3a"/>
  </g>
  <text x="450" y="420" text-anchor="middle" font-family="Georgia, serif" font-size="28" font-weight="600" fill="#3a3228">Sřndre Haugen gĺrd</text>
  <text x="450" y="458" text-anchor="middle" font-family="system-ui, sans-serif" font-size="15" fill="#5c4f3f" letter-spacing="1">Ekte foto fra gĺrden legges inn snart</text>
</svg>
