<svg xmlns="http://www.w3.org/2000/svg" viewBox="0 0 900 675" role="img" aria-label="Sřndre Haugen gĺrd — illustrasjon">
  <defs>
    <linearGradient id="ph-sky" x1="0" y1="0" x2="0" y2="1">
      <stop offset="0%" stop-color="#3d5c4a"/>
      <stop offset="55%" stop-color="#2a4538"/>
      <stop offset="100%" stop-color="#3a3228"/>
    </linearGradient>
    <linearGradient id="ph-field" x1="0" y1="0" x2="1" y2="0">
      <stop offset="0%" stop-color="#2a4538"/>
      <stop offset="100%" stop-color="#4a6b58"/>
    </linearGradient>
  </defs>
  <rect width="900" height="675" fill="url(#ph-sky)"/>
  <path d="M0 420 Q300 360 450 390 T900 370 L900 675 L0 675 Z" fill="url(#ph-field)" opacity="0.9"/>
  <g opacity="0.4" fill="#1a1814">
    <rect x="200" y="320" width="100" height="55"/><polygon points="250,285 300,320 200,320"/>
    <rect x="420" y="300" width="160" height="75"/><polygon points="500,255 580,300 420,300"/>
    <rect x="620" y="330" width="110" height="50"/><polygon points="675,300 730,330 620,330"/>
  </g>
  <circle cx="450" cy="240" r="56" fill="#f7f3eb" stroke="#b8956a" stroke-width="2"/>
  <path d="M430 228 L450 212 L470 228 L470 258 L430 258 Z" fill="#8b3a3a"/>
  <path d="M450 220 L465 228 L480 240 L480 258 L450 258 Z" fill="#b8956a"/>
  <text x="450" y="480" text-anchor="middle" font-family="Georgia, serif" font-size="26" font-weight="600" fill="#f7f3eb">Sřndre Haugen gĺrd</text>
  <text x="450" y="518" text-anchor="middle" font-family="system-ui, sans-serif" font-size="14" fill="#e8dcc8" letter-spacing="0.08em">Vĺler · Řstfold · farm.legal</text>
</svg>
