<svg xmlns="http://www.w3.org/2000/svg" viewBox="0 0 260 52" role="img" aria-label="Søndre Haugen Gård">
  <g transform="translate(0 36) scale(0.19)" fill="none" stroke="#d4a07a" stroke-linecap="round" stroke-linejoin="round">
    <path d="M48 92 L200 8 L352 92" stroke-width="2.4"/>
    <path d="M200 8 L200 0" stroke-width="2"/>
    <circle cx="200" cy="0" r="3.5" fill="#c17f59" stroke="#d4a07a" stroke-width="1"/>
    <path d="M193 12 L200 4 L207 12" stroke-width="1.6"/>
    <path d="M68 92 Q200 48 332 92" stroke-width="2"/>
    <path d="M92 92 Q200 62 308 92" stroke-width="1.6" opacity="0.85"/>
    <path d="M110 86 Q138 72 162 82 Q148 94 110 92" stroke-width="1.5"/>
    <path d="M290 86 Q262 72 238 82 Q252 94 290 92" stroke-width="1.5"/>
    <path d="M178 78 Q200 68 222 78 Q200 88 178 78 Z" fill="#d4a07a" stroke="none" opacity="0.25"/>
    <path d="M58 92 H342" stroke-width="3"/>
    <path d="M82 92 V78 M118 92 V74 M158 92 V70 M200 92 V66 M242 92 V70 M282 92 V74 M318 92 V78" stroke-width="1.8"/>
    <path d="M72 92 V84 M328 92 V84" stroke-width="2.2"/>
  </g>
  <text x="62" y="20" font-family="Georgia, 'Times New Roman', serif" font-size="14.5" font-weight="700" letter-spacing="0.11em" fill="#f6efe4">SØNDRE HAUGEN</text>
  <line x1="62" y1="27" x2="84" y2="27" stroke="#c17f59" stroke-width="0.75"/>
  <text x="62" y="40" font-family="Georgia, 'Times New Roman', serif" font-size="10" font-weight="600" letter-spacing="0.32em" fill="#e5d9c8">GÅRD</text>
  <text x="62" y="50" font-family="Georgia, serif" font-size="7.5" letter-spacing="0.18em" fill="#c17f59">EST. 1850</text>
  <line x1="104" y1="27" x2="126" y2="27" stroke="#c17f59" stroke-width="0.75"/>
</svg>
