<svg xmlns="http://www.w3.org/2000/svg" xmlns:xlink="http://www.w3.org/1999/xlink" viewBox="0 0 400 580" role="img" aria-label="Søndre Haugen gård">
  <defs>
    <clipPath id="photo-oval">
      <ellipse cx="200" cy="228" rx="158" ry="108"/>
    </clipPath>
  </defs>
  <rect width="400" height="580" fill="#faf7f2"/>
  <g transform="translate(0 8) scale(0.95) translate(10 0)">
    
  <g id="gaeble" fill="none" stroke="#5c4f3f" stroke-linecap="round" stroke-linejoin="round">
    <path d="M48 92 L200 8 L352 92" stroke-width="2.4"/>
    <path d="M200 8 L200 0" stroke-width="2"/>
    <circle cx="200" cy="0" r="3.5" fill="#c17f59" stroke="#5c4f3f" stroke-width="1"/>
    <path d="M193 12 L200 4 L207 12" stroke-width="1.6"/>
    <path d="M68 92 Q200 48 332 92" stroke-width="2"/>
    <path d="M92 92 Q200 62 308 92" stroke-width="1.6" opacity="0.85"/>
    <path d="M110 86 Q138 72 162 82 Q148 94 110 92" stroke-width="1.5"/>
    <path d="M290 86 Q262 72 238 82 Q252 94 290 92" stroke-width="1.5"/>
    <path d="M178 78 Q200 68 222 78 Q200 88 178 78 Z" fill="#5c4f3f" stroke="none" opacity="0.35"/>
    <path d="M58 92 H342" stroke-width="3"/>
    <path d="M82 92 V78 M118 92 V74 M158 92 V70 M200 92 V66 M242 92 V70 M282 92 V74 M318 92 V78" stroke-width="1.8"/>
    <path d="M72 92 V84 M328 92 V84" stroke-width="2.2"/>
  </g>
  </g>
  <g clip-path="url(#photo-oval)">
    <image href="logo-farm.jpg" xlink:href="logo-farm.jpg" x="42" y="118" width="316" height="220" preserveAspectRatio="xMidYMid slice"/>
  </g>
  <ellipse cx="200" cy="228" rx="158" ry="108" fill="none" stroke="#c17f59" stroke-width="1.5" opacity="0.6"/>
  <path d="M155 338 Q200 328 245 338" fill="none" stroke="#c17f59" stroke-width="1" opacity="0.5"/>
  <text x="200" y="368" text-anchor="middle" font-family="Georgia, 'Cormorant Garamond', serif" font-size="28" font-weight="700" letter-spacing="0.18em" fill="#3a3228">SØNDRE</text>
  <text x="200" y="402" text-anchor="middle" font-family="Georgia, 'Cormorant Garamond', serif" font-size="28" font-weight="700" letter-spacing="0.18em" fill="#3a3228">HAUGEN</text>
  <line x1="130" y1="418" x2="170" y2="418" stroke="#c17f59" stroke-width="1"/>
  <text x="200" y="424" text-anchor="middle" font-family="Georgia, serif" font-size="13" letter-spacing="0.42em" fill="#5c4f3f">G Å R D</text>
  <line x1="230" y1="418" x2="270" y2="418" stroke="#c17f59" stroke-width="1"/>
  <text x="200" y="452" text-anchor="middle" font-family="Georgia, serif" font-size="8.5" letter-spacing="0.12em" fill="#5c4f3f">GÅRD · BRYLLUP · SELSKAP · FEST</text>
  <path d="M145 478 Q200 492 255 478" fill="none" stroke="#c17f59" stroke-width="0.8"/>
  <text x="200" y="498" text-anchor="middle" font-family="Georgia, serif" font-size="9" letter-spacing="0.2em" fill="#5c4f3f">EST. 1760</text>
  <path d="M168 512 Q200 524 232 512" fill="none" stroke="#2d5a4f" stroke-width="1" opacity="0.45"/>
  <path d="M188 518 Q200 526 212 518" fill="#a64d3f" opacity="0.7"/>
</svg>