<svg xmlns="http://www.w3.org/2000/svg" width="1200" height="630" viewBox="0 0 1200 630" role="img" aria-label="S°ndre Haugen gňrd">
  <defs>
    <linearGradient id="og-bg" x1="0" y1="0" x2="1" y2="1">
      <stop offset="0%" stop-color="#2d5a4f"/>
      <stop offset="50%" stop-color="#1a3c34"/>
      <stop offset="100%" stop-color="#2c2419"/>
    </linearGradient>
  </defs>
  <rect width="1200" height="630" fill="url(#og-bg)"/>
  <path d="M0 400 Q400 340 600 370 T1200 350 L1200 630 L0 630 Z" fill="#1a3c34" opacity="0.5"/>
  <g transform="translate(600 260) scale(1.15)">
    <path d="M0 -80 L104 -34 L104 76 L0 122 L-104 76 L-104 -34 Z" fill="#f6efe4" stroke="#c17f59" stroke-width="2"/>
    <path d="M0 -48 C-32 -48 -52 -26 -52 0 C-52 18 -36 32 -16 36 C-48 44 -60 64 -60 90 C-60 118 -34 140 0 140 C34 140 60 118 60 90 C60 64 48 44 16 36 C36 32 52 18 52 0 C52 -26 32 -48 0 -48 Z" fill="none" stroke="#1a3c34" stroke-width="6" stroke-linecap="round"/>
    <path d="M0 -28 L0 118" stroke="#c17f59" stroke-width="4" stroke-linecap="round"/>
    <circle cx="0" cy="-62" r="6" fill="#c17f59"/>
  </g>
  <text x="600" y="450" text-anchor="middle" font-family="Georgia, serif" font-size="48" font-weight="700" fill="#f6efe4" letter-spacing="6">S&#216;NDRE HAUGEN</text>
  <text x="600" y="500" text-anchor="middle" font-family="Georgia, serif" font-size="40" font-style="italic" fill="#e5d9c8">g&#229;rd</text>
  <text x="600" y="548" text-anchor="middle" font-family="Georgia, serif" font-size="20" fill="#d4a07a" letter-spacing="5">HISTORISK &#183; EKTE &#183; DIN</text>
  <text x="600" y="590" text-anchor="middle" font-family="system-ui, sans-serif" font-size="17" fill="#f6efe4" opacity="0.8">farm.legal</text>
</svg>
